<svg width="135" height="44" viewBox="0 0 135 44" fill="none" xmlns="http://www.w3.org/2000/svg">
<path d="M134.062 29.8907C133.832 29.8907 133.623 30.0382 133.515 30.3466C132.131 34.2685 130.262 36.6015 128.723 36.6015C127.838 36.6015 127.48 35.6227 127.48 34.0875C127.48 30.246 129.796 22.1006 130.964 18.3865C131.098 17.9373 131.186 17.5351 131.186 17.1932C131.186 16.1138 130.592 15.5842 129.121 15.5842C127.535 15.5842 125.827 16.201 124.166 19.0904C123.593 16.5429 121.858 15.43 119.435 15.43C116.633 15.43 113.927 17.22 111.699 20.1229C109.472 23.0257 106.853 23.9777 104.882 23.5084C106.299 20.0625 106.826 17.4881 106.826 15.5775C106.826 12.5808 105.334 10.7707 102.924 10.7707C99.2588 10.7707 97.146 14.2434 97.146 17.8971C97.146 20.7195 98.4352 23.6224 101.27 25.0302C98.8942 30.3667 95.4248 35.1936 94.1085 35.1936C92.4075 35.1936 91.908 26.9275 92.0025 21.0145C92.0632 17.6222 92.3467 17.4479 92.3467 16.4222C92.3467 15.8322 91.962 15.43 90.4163 15.43C86.8118 15.43 85.698 18.4602 85.5292 21.9397C85.4748 23.2619 85.2664 24.5735 84.9083 25.8481C83.403 31.1846 80.298 35.2339 78.273 35.2339C77.3347 35.2339 77.0782 34.302 77.0782 33.0819C77.0782 29.2404 79.245 24.4403 79.245 20.3441C79.245 17.334 77.9153 15.43 75.411 15.43C72.4613 15.43 68.5597 18.9161 64.8675 25.4459C66.0825 20.4447 66.582 15.6043 62.9843 15.6043C62.2037 15.6159 61.4375 15.8136 60.75 16.1809C60.5192 16.288 60.3262 16.4618 60.1962 16.6794C60.0662 16.897 60.0051 17.1484 60.021 17.401C60.3652 22.724 55.701 36.3601 51.2798 36.3601C50.4765 36.3601 50.085 35.4953 50.085 34.1009C50.085 30.2527 52.3935 22.1274 53.5545 18.4066C53.703 17.9239 53.784 17.5083 53.784 17.1462C53.784 16.1272 53.1495 15.6043 51.7118 15.6043C50.1322 15.6043 48.4178 16.201 46.764 19.0904C46.1835 16.5429 44.4487 15.43 42.0255 15.43C38.0497 15.43 33.6082 19.6066 31.6575 25.0504C29.0452 32.3176 23.7803 39.3368 16.6928 39.3368C10.26 39.3368 6.86475 34.0204 6.86475 25.6202C6.86475 13.4925 15.8287 3.58388 22.4775 3.58388C25.6567 3.58388 27.1755 5.5951 27.1755 8.67898C27.1755 12.4132 25.0763 14.1495 25.0763 15.5708C25.0763 16.0065 25.4408 16.4356 26.163 16.4356C29.052 16.4356 32.454 13.0635 32.454 8.46445C32.454 3.86545 28.6943 0.5 22.0455 0.5C11.0565 0.5 0 11.4813 0 25.5532C0 36.749 5.562 43.5 15.1808 43.5C21.7418 43.5 27.4725 38.4317 30.564 32.5187C30.915 37.4194 33.156 39.9804 36.5715 39.9804C39.609 39.9804 42.066 38.1837 43.9425 35.026C44.6648 38.3312 46.5817 39.9468 49.0725 39.9468C51.9277 39.9468 54.3172 38.1501 56.592 34.8115C56.5583 37.4328 57.159 39.8999 59.4473 39.8999C60.5273 39.8999 61.8165 39.6519 62.046 38.7133C64.4557 28.8181 70.4092 20.7396 72.2318 20.7396C72.7718 20.7396 72.9202 21.2558 72.9202 21.8659C72.9202 24.5543 71.01 30.065 71.01 33.5847C71.01 37.3859 72.6367 39.8999 75.9982 39.8999C79.7243 39.8999 83.511 35.3679 86.0355 28.7443C86.8252 34.9322 88.533 39.9267 91.206 39.9267C94.4865 39.9267 100.312 33.0684 103.842 25.8079C105.226 25.9822 107.305 25.9353 109.303 24.5341C108.452 26.6727 107.953 29.0125 107.953 31.3522C107.953 38.0898 111.193 39.9804 113.98 39.9804C117.011 39.9804 119.468 38.1837 121.352 35.026C121.973 37.8753 123.559 39.9401 126.475 39.9401C131.038 39.9401 135 35.3076 135 31.5064C135 30.5008 134.568 29.8907 134.062 29.8907ZM39.3525 36.2462C37.5098 36.2462 36.7875 34.4026 36.7875 31.6539C36.7875 26.8806 40.0748 18.9094 43.551 18.9094C45.0698 18.9094 45.6435 20.686 45.6435 22.8581C45.6435 27.7052 42.5182 36.2462 39.3525 36.2462ZM102.472 22C101.371 20.6994 100.973 18.9295 100.973 17.3541C100.973 15.4099 101.689 13.7674 102.546 13.7674C103.403 13.7674 103.666 14.6054 103.666 15.7719C103.666 17.7228 102.965 20.572 102.472 22ZM116.762 36.2462C114.919 36.2462 114.196 34.1277 114.196 31.6539C114.196 27.0482 117.484 18.9094 120.987 18.9094C122.506 18.9094 123.046 20.6726 123.046 22.8581C123.046 27.7052 119.975 36.2462 116.762 36.2462Z" fill="#56B9CB"/>
</svg>
