<svg width="135" height="43" viewBox="0 0 135 43" fill="none" xmlns="http://www.w3.org/2000/svg">
<path d="M134.062 29.3907C133.832 29.3907 133.623 29.5382 133.515 29.8466C132.131 33.7685 130.261 36.1015 128.722 36.1015C127.838 36.1015 127.48 35.1227 127.48 33.5875C127.48 29.746 129.796 21.6006 130.964 17.8865C131.099 17.4373 131.186 17.0351 131.186 16.6932C131.186 15.6138 130.592 15.0842 129.121 15.0842C127.534 15.0842 125.827 15.701 124.166 18.5904C123.593 16.0429 121.858 14.93 119.435 14.93C116.633 14.93 113.927 16.72 111.699 19.6229C109.472 22.5257 106.853 23.4777 104.882 23.0084C106.299 19.5625 106.826 16.9881 106.826 15.0775C106.826 12.0808 105.334 10.2707 102.924 10.2707C99.2588 10.2707 97.146 13.7434 97.146 17.3971C97.146 20.2195 98.4353 23.1224 101.27 24.5302C98.8943 29.8667 95.4248 34.6936 94.1085 34.6936C92.4075 34.6936 91.908 26.4275 92.0025 20.5145C92.0633 17.1222 92.3467 16.9479 92.3467 15.9222C92.3467 15.3322 91.962 14.93 90.4163 14.93C86.8118 14.93 85.698 17.9602 85.5292 21.4397C85.4748 22.7619 85.2664 24.0735 84.9083 25.3481C83.403 30.6846 80.298 34.7339 78.273 34.7339C77.3347 34.7339 77.0782 33.802 77.0782 32.5819C77.0782 28.7404 79.245 23.9403 79.245 19.8441C79.245 16.834 77.9152 14.93 75.411 14.93C72.4612 14.93 68.5597 18.4161 64.8675 24.9459C66.0825 19.9447 66.582 15.1043 62.9843 15.1043C62.2037 15.1159 61.4375 15.3136 60.75 15.6809C60.5192 15.788 60.3262 15.9618 60.1962 16.1794C60.0662 16.397 60.0051 16.6484 60.021 16.901C60.3653 22.224 55.701 35.8601 51.2798 35.8601C50.4765 35.8601 50.085 34.9953 50.085 33.6009C50.085 29.7527 52.3935 21.6274 53.5545 17.9066C53.703 17.4239 53.784 17.0083 53.784 16.6462C53.784 15.6272 53.1495 15.1043 51.7117 15.1043C50.1322 15.1043 48.4177 15.701 46.764 18.5904C46.1835 16.0429 44.4487 14.93 42.0255 14.93C38.0497 14.93 33.6083 19.1066 31.6575 24.5504C29.0453 31.8176 23.7803 38.8368 16.6928 38.8368C10.26 38.8368 6.86475 33.5204 6.86475 25.1202C6.86475 12.9925 15.8287 3.08388 22.4775 3.08388C25.6567 3.08388 27.1755 5.0951 27.1755 8.17898C27.1755 11.9132 25.0762 13.6495 25.0762 15.0708C25.0762 15.5065 25.4407 15.9356 26.163 15.9356C29.052 15.9356 32.454 12.5635 32.454 7.96445C32.454 3.36545 28.6943 0 22.0455 0C11.0565 0 0 10.9813 0 25.0532C0 36.249 5.562 43 15.1808 43C21.7418 43 27.4725 37.9317 30.564 32.0187C30.915 36.9194 33.156 39.4804 36.5715 39.4804C39.609 39.4804 42.066 37.6837 43.9425 34.526C44.6648 37.8312 46.5817 39.4468 49.0725 39.4468C51.9277 39.4468 54.3172 37.6501 56.592 34.3115C56.5582 36.9328 57.159 39.3999 59.4473 39.3999C60.5273 39.3999 61.8165 39.1519 62.046 38.2133C64.4558 28.3181 70.4093 20.2396 72.2318 20.2396C72.7718 20.2396 72.9203 20.7558 72.9203 21.3659C72.9203 24.0543 71.01 29.565 71.01 33.0847C71.01 36.8859 72.6367 39.3999 75.9982 39.3999C79.7242 39.3999 83.511 34.8679 86.0355 28.2443C86.8253 34.4322 88.533 39.4267 91.206 39.4267C94.4865 39.4267 100.312 32.5684 103.842 25.3079C105.226 25.4822 107.305 25.4353 109.303 24.0341C108.452 26.1727 107.953 28.5125 107.953 30.8522C107.953 37.5898 111.193 39.4804 113.98 39.4804C117.011 39.4804 119.468 37.6837 121.352 34.526C121.973 37.3753 123.559 39.4401 126.475 39.4401C131.038 39.4401 135 34.8076 135 31.0064C135 30.0008 134.568 29.3907 134.062 29.3907ZM39.3525 35.7462C37.5097 35.7462 36.7875 33.9026 36.7875 31.1539C36.7875 26.3806 40.0748 18.4094 43.551 18.4094C45.0698 18.4094 45.6435 20.186 45.6435 22.3581C45.6435 27.2052 42.5182 35.7462 39.3525 35.7462ZM102.472 21.5C101.371 20.1994 100.973 18.4295 100.973 16.8541C100.973 14.9099 101.689 13.2674 102.546 13.2674C103.403 13.2674 103.666 14.1054 103.666 15.2719C103.666 17.2228 102.964 20.072 102.472 21.5ZM116.762 35.7462C114.919 35.7462 114.196 33.6277 114.196 31.1539C114.196 26.5482 117.484 18.4094 120.987 18.4094C122.506 18.4094 123.046 20.1726 123.046 22.3581C123.046 27.2052 119.975 35.7462 116.762 35.7462Z" fill="url(#paint0_linear_47_38)"/>
<defs>
<linearGradient id="paint0_linear_47_38" x1="0" y1="21.5" x2="135" y2="21.5" gradientUnits="userSpaceOnUse">
<stop stop-color="#59C0C9"/>
<stop offset="0.455" stop-color="#3468E2"/>
<stop offset="1" stop-color="#7847E5"/>
</linearGradient>
</defs>
</svg>
