<svg width="590" height="221" viewBox="0 0 590 221" fill="none" xmlns="http://www.w3.org/2000/svg">
<path d="M92.0564 0.416127C90.3732 -0.494301 88.4311 0.156005 87.5247 1.71674C87.2658 2.23699 87.1363 2.75723 87.1363 3.27747C86.7479 41.3854 47.1287 54.2615 47.1287 85.6062C40.2666 79.4934 37.5476 65.8369 36.9002 58.9437C36.6413 57.1228 34.9581 55.6922 33.1455 55.9523C32.2391 56.0823 31.4623 56.4725 30.8149 57.2529C20.5864 70.6492 0 102.254 0 140.492C0 196.288 44.1508 221 78.7205 221C113.29 221 170 194.598 170 122.544C169.871 53.3511 125.072 18.3646 92.0564 0.416127Z" fill="#4F4F4F"/>
<path d="M278.156 49.55C268.556 49.55 259.356 53.75 253.256 61.15H252.856L254.056 53.95C254.256 52.85 253.456 51.65 252.356 51.55C252.156 51.55 252.056 51.55 252.056 51.55H220.656C219.556 51.55 218.856 52.35 218.556 53.25L206.256 123.15C206.056 124.55 196.756 160.75 231.956 171.65H233.656C234.756 171.65 235.456 170.85 235.756 169.95L242.256 132.55H242.556C246.756 138.45 256.656 141.75 265.356 141.75C293.456 141.75 314.456 117.15 314.456 87.05C314.356 66.45 302.056 49.55 278.156 49.55ZM260.556 111.65C252.156 111.65 247.356 106.25 247.356 98.85C247.356 88.45 254.256 79.65 264.456 79.65C273.156 79.65 277.856 85.25 277.856 92.45C277.856 102.95 271.356 111.65 260.556 111.65Z" fill="#4F4F4F"/>
<path d="M489.256 50.15C487.556 49.85 485.956 49.85 484.256 49.85C474.156 49.85 466.956 55.25 461.756 62.45H461.256C461.556 60.65 462.156 56.75 462.456 54.05C462.656 52.95 461.656 51.95 460.656 51.75H460.456H428.456C427.356 51.75 426.456 52.55 426.456 53.55C425.856 58.65 424.956 65.25 424.156 69.05L419.756 93.65C413.856 124.95 437.056 139.95 447.256 139.95C448.356 139.95 449.256 139.15 449.356 138.15L456.556 97.15C458.056 88.85 464.656 81.65 476.256 81.65C478.056 81.65 480.056 81.85 481.856 81.95C483.256 82.15 484.456 81.15 484.756 79.95L490.756 52.55C491.056 51.55 490.456 50.45 489.256 50.15Z" fill="#4F4F4F"/>
<path d="M540.656 48.95C505.956 48.95 485.956 73.45 485.956 103.05C485.956 128.75 507.156 142.45 533.856 142.45C569.156 142.45 589.156 117.95 589.156 88.35C589.256 62.65 568.156 48.95 540.656 48.95ZM535.556 111.65C527.156 111.65 522.456 106.25 522.456 98.85C522.456 88.45 529.256 79.65 539.456 79.65C548.156 79.65 552.656 85.25 552.656 92.45C552.756 102.95 546.256 111.65 535.556 111.65Z" fill="#4F4F4F"/>
<path d="M421.056 54.65C421.656 53.55 421.256 52.35 420.256 51.95C419.956 51.75 419.656 51.65 419.156 51.65H385.456C383.456 51.65 381.856 52.85 381.056 54.55L361.856 91.65H361.256L356.156 53.45C355.956 52.35 355.056 51.65 354.056 51.65H316.856C315.656 51.65 314.756 52.55 314.756 53.75C314.756 53.95 314.756 54.05 314.756 54.25L334.456 135.45C334.956 137.25 334.756 139.25 333.956 141.05L318.656 169.05C318.156 170.15 318.456 171.35 319.556 171.75C319.856 171.95 320.156 171.95 320.456 172.05H330.656C331.456 172.05 357.856 171.85 370.156 148.75L400.656 92.35L421.056 54.65Z" fill="#4F4F4F"/>
</svg>
