<svg width="385" height="124" viewBox="0 0 385 124" fill="none" xmlns="http://www.w3.org/2000/svg">
<path d="M73.1562 0.600006C63.5562 0.600006 54.3562 4.80001 48.2562 12.2H47.8562L49.0561 5.00001C49.2561 3.90001 48.4562 2.70001 47.3562 2.60001C47.1562 2.60001 47.0561 2.60001 47.0561 2.60001H15.6561C14.5561 2.60001 13.8562 3.40001 13.5562 4.30001L1.25615 74.2C1.05615 75.6 -8.24385 111.8 26.9562 122.7H28.6562C29.7562 122.7 30.4562 121.9 30.7562 121L37.2562 83.6H37.5561C41.7561 89.5 51.6562 92.8 60.3562 92.8C88.4562 92.8 109.456 68.2 109.456 38.1C109.356 17.5 97.0562 0.600006 73.1562 0.600006ZM55.5561 62.7C47.1561 62.7 42.3562 57.3 42.3562 49.9C42.3562 39.5 49.2562 30.7 59.4562 30.7C68.1561 30.7 72.8561 36.3 72.8561 43.5C72.8561 54 66.3561 62.7 55.5561 62.7Z" fill="#4F4F4F"/>
<path d="M284.256 1.2C282.556 0.899997 280.956 0.899994 279.256 0.899994C269.156 0.899994 261.956 6.29999 256.756 13.5H256.256C256.556 11.7 257.156 7.79999 257.456 5.09999C257.656 3.99999 256.656 3 255.656 2.8H255.456H223.456C222.356 2.8 221.456 3.59999 221.456 4.59999C220.856 9.69999 219.956 16.3 219.156 20.1L214.756 44.7C208.856 76 232.056 91 242.256 91C243.356 91 244.256 90.2 244.356 89.2L251.556 48.2C253.056 39.9 259.656 32.7 271.256 32.7C273.056 32.7 275.056 32.9 276.856 33C278.256 33.2 279.456 32.2 279.756 31L285.756 3.59999C286.056 2.59999 285.456 1.5 284.256 1.2Z" fill="#4F4F4F"/>
<path d="M335.656 0C300.956 0 280.956 24.5 280.956 54.1C280.956 79.8 302.156 93.5 328.856 93.5C364.156 93.5 384.156 69 384.156 39.4C384.256 13.7 363.156 0 335.656 0ZM330.556 62.7C322.156 62.7 317.456 57.3 317.456 49.9C317.456 39.5 324.256 30.7 334.456 30.7C343.156 30.7 347.656 36.3 347.656 43.5C347.756 54 341.256 62.7 330.556 62.7Z" fill="#4F4F4F"/>
<path d="M216.056 5.70001C216.656 4.60001 216.256 3.40001 215.256 3.00001C214.956 2.80001 214.656 2.70001 214.156 2.70001H180.456C178.456 2.70001 176.856 3.90001 176.056 5.60001L156.856 42.7H156.256L151.156 4.50001C150.956 3.40001 150.056 2.70001 149.056 2.70001H111.856C110.656 2.70001 109.756 3.60001 109.756 4.80001C109.756 5.00001 109.756 5.10001 109.756 5.30001L129.456 86.5C129.956 88.3 129.756 90.3 128.956 92.1L113.656 120.1C113.156 121.2 113.456 122.4 114.556 122.8C114.856 123 115.156 123 115.456 123.1H125.656C126.456 123.1 152.856 122.9 165.156 99.8L195.656 43.4L216.056 5.70001Z" fill="#4F4F4F"/>
</svg>
