<svg width="125" height="48" viewBox="0 0 125 48" fill="none" xmlns="http://www.w3.org/2000/svg">
<path d="M19.5313 0.643739C19.1742 0.450576 18.7622 0.58855 18.5699 0.919688C18.5149 1.03007 18.4875 1.14045 18.4875 1.25082C18.4051 9.3361 9.99913 12.068 9.99913 18.7183C8.54322 17.4214 7.96633 14.5239 7.82898 13.0614C7.77405 12.6751 7.41692 12.3715 7.03235 12.4267C6.84004 12.4543 6.67523 12.5371 6.53787 12.7027C4.36771 15.5449 -6.10352e-05 22.2505 -6.10352e-05 30.3633C-6.10352e-05 42.2015 9.36732 47.4446 16.7019 47.4446C24.0364 47.4446 36.0685 41.8429 36.0685 26.5554C36.0411 11.8748 26.5362 4.45183 19.5313 0.643739Z" fill="#FF4895"/>
<path d="M59.0157 11.0684C56.9789 11.0684 55.027 11.9595 53.7327 13.5295H53.6479L53.9025 12.0019C53.9449 11.7685 53.7752 11.5139 53.5418 11.4927C53.4993 11.4927 53.4781 11.4927 53.4781 11.4927H46.8161C46.5827 11.4927 46.4342 11.6624 46.3705 11.8534L43.7608 26.6839C43.7184 26.981 41.7452 34.6614 49.2136 36.9741H49.5742C49.8076 36.9741 49.9561 36.8043 50.0198 36.6134L51.3989 28.6783H51.4625C52.3536 29.9301 54.4541 30.6302 56.3 30.6302C62.2619 30.6302 66.7174 25.4109 66.7174 19.0247C66.6962 14.654 64.0865 11.0684 59.0157 11.0684ZM55.2816 24.244C53.4993 24.244 52.4809 23.0983 52.4809 21.5282C52.4809 19.3217 53.9449 17.4546 56.109 17.4546C57.9549 17.4546 58.9521 18.6428 58.9521 20.1704C58.9521 22.3981 57.573 24.244 55.2816 24.244Z" fill="#4F4F4F"/>
<path d="M103.804 11.1957C103.444 11.132 103.104 11.132 102.744 11.132C100.601 11.132 99.073 12.2777 97.9698 13.8053H97.8637C97.9273 13.4234 98.0546 12.596 98.1183 12.0231C98.1607 11.7897 97.9485 11.5776 97.7364 11.5351H97.6939H90.9046C90.6712 11.5351 90.4802 11.7049 90.4802 11.917C90.3529 12.9991 90.162 14.3994 89.9922 15.2056L89.0587 20.425C87.8069 27.0658 92.7292 30.2483 94.8933 30.2483C95.1267 30.2483 95.3177 30.0786 95.3389 29.8664L96.8665 21.1676C97.1847 19.4066 98.585 17.879 101.046 17.879C101.428 17.879 101.852 17.9214 102.234 17.9426C102.531 17.985 102.786 17.7729 102.85 17.5183L104.123 11.7049C104.186 11.4927 104.059 11.2593 103.804 11.1957Z" fill="#4F4F4F"/>
<path d="M114.71 10.9411C107.348 10.9411 103.104 16.1392 103.104 22.4194C103.104 27.8721 107.602 30.7788 113.267 30.7788C120.757 30.7788 125 25.5807 125 19.3005C125.021 13.8478 120.544 10.9411 114.71 10.9411ZM113.628 24.244C111.846 24.244 110.848 23.0983 110.848 21.5282C110.848 19.3217 112.291 17.4546 114.455 17.4546C116.301 17.4546 117.256 18.6428 117.256 20.1704C117.277 22.3981 115.898 24.244 113.628 24.244Z" fill="#4F4F4F"/>
<path d="M89.3345 12.1504C89.4618 11.917 89.3769 11.6624 89.1648 11.5776C89.1011 11.5351 89.0375 11.5139 88.9314 11.5139H81.7813C81.357 11.5139 81.0175 11.7685 80.8478 12.1292L76.7742 20.0006H76.6469L75.5648 11.8958C75.5224 11.6624 75.3314 11.5139 75.1193 11.5139H67.2266C66.972 11.5139 66.7811 11.7049 66.7811 11.9595C66.7811 12.0019 66.7811 12.0231 66.7811 12.0656L70.9608 29.2936C71.0669 29.6755 71.0244 30.0998 70.8547 30.4817L67.6085 36.4224C67.5024 36.6558 67.5661 36.9104 67.7995 36.9953C67.8631 37.0377 67.9268 37.0377 67.9904 37.0589H70.1545C70.3243 37.0589 75.9255 37.0165 78.5352 32.1154L85.0063 20.1491L89.3345 12.1504Z" fill="#4F4F4F"/>
</svg>
