<svg width="16" height="15" viewBox="0 0 16 15" fill="none" xmlns="http://www.w3.org/2000/svg">
<path fill-rule="evenodd" clip-rule="evenodd" d="M5.75 0.1875C2.85051 0.1875 0.5 2.53801 0.5 5.4375C0.5 8.337 2.85051 10.6875 5.75 10.6875C6.9924 10.6875 8.134 10.2559 9.03308 9.53456C10.0482 10.757 11.6094 12.4219 14 14.8125L15.125 13.6875C12.7416 11.3041 10.8647 9.52459 9.85542 8.71013C10.5718 7.81266 11 6.67509 11 5.4375C11 2.53801 8.6495 0.1875 5.75 0.1875ZM2 5.4375C2 3.36643 3.67893 1.6875 5.75 1.6875C7.82107 1.6875 9.5 3.36643 9.5 5.4375C9.5 7.50857 7.82107 9.1875 5.75 9.1875C3.67893 9.1875 2 7.50857 2 5.4375Z" fill="#B7B7B7"/>
</svg>
