<svg width="327" height="556" viewBox="0 0 327 556" fill="none" xmlns="http://www.w3.org/2000/svg">
<rect x="10" y="10" width="71.5" height="72" rx="4" fill="white" fill-opacity="0.1"/>
<rect x="86.5" y="10" width="71.5" height="72" rx="4" fill="white" fill-opacity="0.1"/>
<rect x="163" y="10" width="154" height="72" rx="4" fill="white" fill-opacity="0.1"/>
<rect x="10" y="87" width="130" height="73" rx="4" fill="white" fill-opacity="0.1"/>
<rect x="145" y="87" width="114" height="73" rx="4" fill="white" fill-opacity="0.1"/>
<rect x="264" y="87" width="53" height="73" rx="4" fill="white" fill-opacity="0.1"/>
<rect x="10" y="165" width="71.5" height="72" rx="4" fill="white" fill-opacity="0.1"/>
<rect x="86.5" y="165" width="71.5" height="72" rx="4" fill="white" fill-opacity="0.1"/>
<rect x="163" y="165" width="154" height="72" rx="4" fill="white" fill-opacity="0.1"/>
<rect x="10" y="242" width="122" height="72" rx="4" fill="white" fill-opacity="0.1"/>
<rect x="137" y="242" width="132" height="72" rx="4" fill="white" fill-opacity="0.1"/>
<rect x="274" y="242" width="43" height="72" rx="4" fill="white" fill-opacity="0.1"/>
<rect x="10" y="319" width="91" height="72" rx="4" fill="white" fill-opacity="0.1"/>
<rect x="106" y="319" width="115" height="72" rx="4" fill="white" fill-opacity="0.1"/>
<rect x="226" y="319" width="91" height="72" rx="4" fill="white" fill-opacity="0.1"/>
<rect x="10" y="396" width="141" height="73" rx="4" fill="white" fill-opacity="0.1"/>
<rect x="156" y="396" width="80" height="73" rx="4" fill="white" fill-opacity="0.1"/>
<rect x="241" y="396" width="76" height="73" rx="4" fill="white" fill-opacity="0.1"/>
<rect x="10" y="474" width="101" height="72" rx="4" fill="white" fill-opacity="0.1"/>
<rect x="116" y="474" width="93" height="72" rx="4" fill="white" fill-opacity="0.1"/>
</svg>
