<svg width="19" height="18" viewBox="0 0 19 18" fill="none" xmlns="http://www.w3.org/2000/svg">
<path fill-rule="evenodd" clip-rule="evenodd" d="M7.96404 11.6559C9.85841 10.7878 11.0834 8.71474 11.0834 6.29545C11.0834 3.09471 9.21215 0.5 5.93753 0.5C2.66292 0.5 0.791713 3.09471 0.791713 6.29545C0.791713 8.71471 2.01662 10.7877 3.91094 11.6558C3.73761 12.2231 3.11136 12.4497 2.40922 12.7039C1.2994 13.1056 0 13.5759 0 15.5682L3.8127e-05 17.5H11.875V15.5682C11.875 13.5759 10.5756 13.1056 9.46577 12.7039C8.76364 12.4497 8.13739 12.2231 7.96404 11.6559ZM5.93753 10.5455C7.83025 10.5455 9.50002 8.89121 9.50002 6.29545C9.50002 4.97447 9.11298 3.89349 8.51188 3.17476C7.93797 2.48854 7.10332 2.04545 5.93753 2.04545C4.77174 2.04545 3.9371 2.48854 3.36318 3.17476C2.76208 3.89349 2.37504 4.97447 2.37504 6.29545C2.37504 8.89121 4.04482 10.5455 5.93753 10.5455Z" fill="white"/>
<path d="M14.25 0.5H15.8333V2.81818H18.2083V4.36364H15.8333V6.68182H14.25V4.36364H11.875V2.81818H14.25V0.5Z" fill="white"/>
<path d="M12.2708 10.5455C13.6372 10.5455 14.8874 9.68335 15.4771 8.22727H17.1408C16.7717 9.46708 16.0497 10.5133 15.0801 11.203C15.1266 11.3392 15.2148 11.4329 15.3435 11.5271C15.5588 11.6847 15.8234 11.7975 16.196 11.9564C16.3055 12.003 16.4245 12.0538 16.554 12.1107C17.0644 12.3349 17.6961 12.6445 18.1872 13.1957C18.7015 13.773 19 14.541 19 15.5682V17.5H14.25V15.9545H17.4167V15.5682C17.4167 14.8567 17.2204 14.4657 16.9924 14.2098C16.7414 13.928 16.3835 13.7305 15.9043 13.52C15.8279 13.4865 15.7446 13.4513 15.6565 13.4141C15.2618 13.2475 14.7725 13.0409 14.3935 12.7634C14.0856 12.5381 13.8261 12.2541 13.6591 11.8944C13.2226 12.0226 12.758 12.0909 12.2708 12.0909C11.7329 12.0909 11.2224 12.0076 10.7469 11.8523C11.0915 11.4316 11.3935 10.9728 11.6498 10.4851C11.8527 10.525 12.0604 10.5455 12.2708 10.5455Z" fill="white"/>
</svg>
